<svg xmlns="http://www.w3.org/2000/svg" width="160" height="40" viewBox="0 0 160 40"><g fill="#FFF"><path d="M50.996 11.931c.32.322.48.736.48 1.248v12.615c0 2.307-.713 4.012-2.141 5.117-1.426 1.105-3.236 1.658-5.428 1.658-.567 0-1.348-.096-2.34-.283-.991-.189-1.696-.377-2.111-.566-.927-.396-1.39-.945-1.39-1.645 0-.133.028-.283.085-.455.113-.414.307-.73.582-.949.273-.217.57-.324.893-.324.189 0 .369.027.539.084.075.018.543.193 1.402.525.861.33 1.64.494 2.34.494 1.398 0 2.441-.277 3.133-.836.689-.557 1.034-1.346 1.034-2.367v-1.359c-.415.586-1.044 1.113-1.885 1.586a5.436 5.436 0 0 1-2.708.709c-1.322 0-2.527-.336-3.614-1.006s-1.942-1.602-2.565-2.793c-.625-1.191-.936-2.541-.936-4.055 0-1.51.307-2.867.922-4.066.613-1.201 1.455-2.137 2.521-2.807 1.068-.671 2.254-1.007 3.559-1.007.965 0 1.861.198 2.693.595.831.396 1.502.879 2.013 1.447v-.312c0-.492.16-.902.482-1.234.321-.33.727-.495 1.219-.495.493-.001.899.16 1.221.481zm-3.984 10.787c.803-.898 1.205-2.025 1.205-3.389 0-1.359-.402-2.494-1.205-3.4-.803-.908-1.838-1.361-3.104-1.361-1.268 0-2.297.453-3.091 1.361-.794.906-1.19 2.041-1.19 3.4 0 1.363.396 2.49 1.19 3.389s1.823 1.348 3.091 1.348c1.266-.001 2.301-.45 3.104-1.348zm20.54-10.787c.321.322.481.736.481 1.248v11.992c0 .492-.16.902-.481 1.232-.321.332-.729.496-1.22.496-.49 0-.893-.16-1.205-.48-.311-.322-.477-.729-.496-1.221-.473.549-1.109 1.018-1.912 1.402a5.757 5.757 0 0 1-2.538.582c-1.304 0-2.485-.336-3.544-1.006s-1.895-1.602-2.508-2.793c-.615-1.191-.923-2.541-.923-4.055 0-1.51.302-2.867.907-4.066.605-1.201 1.432-2.137 2.481-2.807a6.312 6.312 0 0 1 3.472-1.007c.908 0 1.759.165 2.553.495.793.332 1.464.752 2.012 1.262v-.027c0-.492.161-.902.482-1.234.321-.33.729-.495 1.219-.495.491 0 .898.161 1.22.482zm-3.941 10.787c.773-.898 1.162-2.025 1.162-3.389 0-1.359-.389-2.494-1.162-3.4-.775-.908-1.777-1.361-3.006-1.361-1.209 0-2.201.453-2.977 1.361-.775.906-1.162 2.041-1.162 3.4 0 1.363.383 2.49 1.148 3.389s1.762 1.348 2.99 1.348 2.232-.45 3.007-1.348zm20.354-10.489c.322.331.482.742.482 1.233v12.049c0 2.457-.662 4.248-1.984 5.371-1.322 1.125-3.09 1.688-5.301 1.688-.644 0-1.301-.051-1.971-.156-.671-.104-1.215-.24-1.631-.41-.926-.396-1.389-.945-1.389-1.645 0-.133.028-.283.086-.453.113-.416.307-.732.58-.949.273-.219.571-.328.895-.328.188 0 .367.029.538.086.132.057.363.15.694.283.33.133.68.24 1.049.326.368.086.751.127 1.148.127 1.342 0 2.328-.287 2.962-.863s.95-1.564.95-2.963v-.283c-.983 1.229-2.514 1.842-4.593 1.842-.983 0-1.853-.23-2.608-.693s-1.342-1.105-1.758-1.928c-.416-.824-.624-1.762-.624-2.822v-8.277c0-.491.161-.902.482-1.233.321-.33.728-.497 1.219-.497s.897.167 1.22.497c.321.331.482.742.482 1.233v7.258c0 1.191.258 2.045.778 2.564.521.521 1.28.781 2.282.781.982 0 1.744-.289 2.283-.865.538-.576.808-1.402.808-2.48v-7.258c0-.491.16-.902.481-1.233.322-.33.728-.497 1.22-.497.493-.003.9.164 1.22.495zm3.034 11.467c0-.492.245-.908.737-1.248.265-.17.539-.256.821-.256.397 0 .774.182 1.134.539.567.588 1.158 1.021 1.772 1.305s1.356.426 2.226.426c1.475-.057 2.211-.615 2.211-1.674 0-.547-.25-.963-.751-1.246-.501-.285-1.28-.568-2.339-.85-1.096-.303-1.989-.605-2.679-.908a4.751 4.751 0 0 1-1.786-1.375c-.501-.615-.752-1.441-.752-2.48 0-.908.26-1.697.779-2.367.521-.672 1.201-1.191 2.041-1.56a6.615 6.615 0 0 1 2.68-.553c.964 0 1.928.18 2.893.538.964.359 1.719.889 2.268 1.588.245.303.368.643.368 1.021 0 .434-.179.793-.538 1.076a1.425 1.425 0 0 1-.907.312c-.417 0-.757-.133-1.021-.396a3.582 3.582 0 0 0-1.318-.992c-.539-.246-1.148-.369-1.829-.369-1.437 0-2.154.52-2.154 1.559 0 .416.132.752.397 1.008.264.254.6.453 1.006.594a31.4 31.4 0 0 0 1.715.525c1.021.283 1.871.576 2.553.879.68.303 1.256.764 1.729 1.389.472.623.709 1.445.709 2.467 0 .926-.274 1.734-.822 2.424a5.214 5.214 0 0 1-2.113 1.574 6.842 6.842 0 0 1-2.649.537c-1.247 0-2.41-.209-3.487-.623a5.797 5.797 0 0 1-2.637-2.014c-.172-.227-.257-.51-.257-.85z"/></g><g><path fill="#FFF" d="M105.229 14.058v9.498c0 .717.132 1.203.397 1.459.264.254.613.383 1.049.383.113 0 .255-.023.426-.07.169-.049.301-.07.396-.07.171 0 .317.07.44.211a.735.735 0 0 1 .184.496c0 .266-.151.488-.453.666-.303.18-.662.27-1.078.27-.51 0-.963-.047-1.36-.143-.397-.092-.78-.377-1.147-.85-.369-.473-.553-1.229-.553-2.268v-9.582h-2.07a.82.82 0 0 1-.582-.228.746.746 0 0 1-.24-.567c0-.227.08-.415.24-.566a.827.827 0 0 1 .582-.227h2.07V9.323c0-.246.08-.449.24-.61a.826.826 0 0 1 .609-.241.826.826 0 0 1 .85.851v3.146h2.835c.207 0 .392.086.553.255a.81.81 0 0 1 .241.567.718.718 0 0 1-.228.553.797.797 0 0 1-.566.213h-2.835z"/></g><g><path fill="#FFF" d="M120.113 12.3c.303.15.454.377.454.68 0 .266-.076.478-.228.639a.716.716 0 0 1-.538.24c-.095 0-.279-.046-.553-.141a2.358 2.358 0 0 0-.78-.143c-.699 0-1.394.27-2.083.809-.69.537-1.258 1.232-1.701 2.082-.444.852-.667 1.711-.667 2.582v7.002c0 .246-.08.449-.24.609a.828.828 0 0 1-.609.24.824.824 0 0 1-.851-.849V13.349c0-.245.081-.449.242-.61a.827.827 0 0 1 .609-.24c.245 0 .448.081.609.24a.83.83 0 0 1 .24.61v2.494a6.524 6.524 0 0 1 1.971-2.678c.88-.709 1.914-1.072 3.104-1.092.379 0 .719.075 1.021.227z"/></g><g><path fill="#FFF" d="M135.093 12.399c.16.16.241.363.241.609V25.51c0 1.492-.294 2.768-.879 3.826-.586 1.059-1.398 1.863-2.438 2.41-1.039.549-2.211.822-3.515.822a9.184 9.184 0 0 1-2.226-.256c-.69-.168-1.262-.395-1.716-.68-.396-.246-.595-.52-.595-.822 0-.037.019-.133.056-.283a.786.786 0 0 1 .284-.426.72.72 0 0 1 .766-.057c1.209.662 2.362.992 3.459.992 1.568 0 2.811-.492 3.728-1.473.917-.982 1.375-2.326 1.375-4.027v-.992c-.473.795-1.152 1.434-2.041 1.914a5.972 5.972 0 0 1-2.892.723c-1.645 0-2.893-.49-3.742-1.473-.851-.982-1.276-2.316-1.276-3.998v-8.703a.826.826 0 0 1 .85-.85.825.825 0 0 1 .85.85v8.447c0 1.361.298 2.391.894 3.09.595.701 1.526 1.049 2.792 1.049.775 0 1.517-.193 2.226-.58s1.276-.898 1.701-1.531c.426-.633.638-1.309.638-2.027v-8.447a.822.822 0 0 1 .85-.85c.246 0 .449.08.61.241z"/></g><g><path fill="#FFF" d="M138.272 23.979c0-.246.123-.434.369-.566a.614.614 0 0 1 .453-.17c.227 0 .435.094.624.283 1.115 1.475 2.598 2.211 4.451 2.211.907 0 1.695-.213 2.367-.637.67-.426 1.006-1.045 1.006-1.857 0-.795-.312-1.389-.936-1.787-.624-.396-1.493-.736-2.608-1.02-1.569-.398-2.797-.912-3.685-1.545-.89-.635-1.333-1.564-1.333-2.793 0-.775.217-1.469.652-2.084.435-.613 1.024-1.092 1.771-1.432s1.592-.51 2.537-.51c.812 0 1.631.155 2.452.467a5.171 5.171 0 0 1 2.112 1.49c.171.131.255.32.255.566 0 .227-.095.424-.283.596a.768.768 0 0 1-.51.168.701.701 0 0 1-.511-.227 4.493 4.493 0 0 0-1.615-1.162 5.117 5.117 0 0 0-2.014-.396c-.889 0-1.649.208-2.281.623-.634.416-.95 1.041-.95 1.871.037.758.382 1.332 1.034 1.73.652.396 1.611.756 2.878 1.076.982.246 1.796.521 2.438.822a4.11 4.11 0 0 1 1.574 1.275c.406.549.609 1.277.609 2.184 0 1.229-.492 2.207-1.475 2.936-.982.727-2.201 1.09-3.657 1.09-2.306 0-4.139-.859-5.5-2.58-.148-.243-.224-.452-.224-.622z"/></g><g><path fill="#FFF" d="M156.372 14.058v9.498c0 .717.132 1.203.396 1.459.265.254.614.383 1.05.383.113 0 .255-.023.425-.07.17-.049.302-.07.396-.07.17 0 .316.07.439.211a.736.736 0 0 1 .185.496c0 .266-.151.488-.454.666-.302.18-.661.27-1.077.27-.51 0-.964-.047-1.36-.143-.397-.092-.78-.377-1.148-.85s-.553-1.229-.553-2.268v-9.582h-2.069a.816.816 0 0 1-.582-.228.746.746 0 0 1-.24-.567c0-.227.08-.415.24-.566a.823.823 0 0 1 .582-.227h2.069V9.323a.826.826 0 0 1 .85-.851.83.83 0 0 1 .609.241.826.826 0 0 1 .241.61v3.146h2.835c.207 0 .392.086.553.255.16.17.24.359.24.567a.72.72 0 0 1-.227.553.797.797 0 0 1-.566.213h-2.834z"/></g><g><path fill="#E52332" d="M4.839 5.505A5.313 5.313 0 0 0 0 10.595v8.68a11.546 11.546 0 0 1 4.839-1.539V5.505z"/><path fill="#F18A38" d="M5.852 17.687c1.324 0 2.61.229 3.823.652V5.481H5.292c-.153 0-.304.012-.453.023v12.23c.335-.026.672-.047 1.013-.047zM4.846 34.495V21.528z"/><path fill="#F1E850" d="M12.818 20.021l1.695-1.695v-2.402h-.602a1.645 1.645 0 1 1 0-3.292h.602V5.481H9.675v12.857c1.122.395 2.182.958 3.143 1.683z"/><path fill="#1A8344" d="M16.914 15.923h-2.4v2.402zm2.351 5.344V18.23l-4.118 4.119c2.666 3.553 3.026 8.291 1.092 12.17h3.113V21.772a1.627 1.627 0 0 1-.087-.505zM14.514 5.481h4.838v7.149h-4.838z"/><path fill="#2D668E" d="M23.727 5.481h-4.375v7.149h1.477c.139-.006.277.004.414.034.005 0 .009.002.015.004a1.644 1.644 0 0 1 1.299 1.607v6.99a1.643 1.643 0 0 1-3.206.505v12.723l4.838.023V5.507a4.44 4.44 0 0 0-.462-.026zm-2.866 6.881c.007 0 .012-.004.018-.004.01 0 .021.004.032.004h-.05zm1.449.588l.003.004-.003-.004zm.555 1.832a2.17 2.17 0 0 0 .041-.396l-.001-.002.001.002a2.078 2.078 0 0 1-.041.396z"/><path fill="#6B2E86" d="M24.189 5.507v28.988c2.701-.238 4.837-2.52 4.837-5.277V10.783c0-2.759-2.135-5.04-4.837-5.276z"/><path fill="#E52332" d="M0 23.38v6.023a5.302 5.302 0 0 0 2.4 4.24 5.283 5.283 0 0 0 2.438.852V21.048A8.267 8.267 0 0 0 0 23.38zm4.839-1.852h.007v12.967h-.007z"/><path fill="#F18A38" d="M5.852 20.979c-.342 0-.678.027-1.013.068v.48h.007v12.967l4.829.023V21.911a8.262 8.262 0 0 0-3.823-.932z"/><path fill="#F18A38" d="M9.674 22.503h.011v12.014h-.011z"/><path fill="#F1E850" d="M11.915 23.606c-.067-.049-.135-.098-.196-.16-.062-.061-.111-.129-.161-.197a8.44 8.44 0 0 0-1.883-1.338v.59c.003 0 .007.002.01.004v12.014h2.675a8.345 8.345 0 0 0-.445-10.913z"/><path fill="#000729" d="M20.861 12.362h.05c-.011 0-.022-.004-.032-.004-.006 0-.011.004-.018.004z"/><path fill="#141529" d="M21.531 12.753a1.727 1.727 0 0 0-.274-.084c-.006-.002-.01-.004-.015-.004a1.603 1.603 0 0 0-.414-.034h-6.917a1.646 1.646 0 0 0 0 3.292h3.002l-2.4 2.402-1.695 1.695a11.604 11.604 0 0 0-6.967-2.334c-.341 0-.678.021-1.013.049A11.56 11.56 0 0 0 0 19.274v4.105a8.267 8.267 0 0 1 4.839-2.332 8.312 8.312 0 0 1 1.013-.068c1.354 0 2.656.324 3.823.932a8.44 8.44 0 0 1 1.883 1.338c.05.068.1.137.161.197.062.062.129.111.196.16a8.344 8.344 0 0 1 .445 10.912h3.878c1.935-3.879 1.574-8.617-1.092-12.17l4.118-4.119v3.037c0 .178.035.346.087.506.215.66.828 1.141 1.56 1.141.909 0 1.646-.738 1.646-1.646v-6.99c0-.69-.424-1.278-1.026-1.524z"/></g></svg>