<svg id="Layer_1" version="1.1" viewBox="0 0 512 512" xml:space="preserve" xmlns="http://www.w3.org/2000/svg"><style>.st5{fill:#008}</style><g id="XMLID_6849_"><g id="XMLID_6856_"><path d="M512 256c0 29.9-5.2 58.6-14.6 85.4C462.1 440.7 367.3 512 256 512S49.9 440.7 14.6 341.4C5.2 314.6 0 285.9 0 256c0-29.9 5.2-58.6 14.6-85.4C49.9 71.3 144.7 0 256 0s206.1 71.3 241.4 170.6c9.4 26.8 14.6 55.5 14.6 85.4z" id="XMLID_6859_" fill="#fff"/><path d="M497.4 170.6H14.6C49.9 71.3 144.7 0 256 0s206.1 71.3 241.4 170.6z" id="XMLID_6858_" fill="#f93"/><path d="M497.4 341.4C462.1 440.7 367.3 512 256 512S49.9 440.7 14.6 341.4h482.8z" id="XMLID_6857_" fill="#128807"/></g><g id="XMLID_6850_"><path class="st5" d="M265.1 263.7l.2-.1.1-.1.2-.2c.1-.1.1-.2.1-.2l.2-.2.1-.1.2-.2.1-.1 9.3 7.1 32.3 16.3-30.2-19.9-10.7-4.5.1-.1.1-.2s.1-.1.1-.2l.1-.2s.1-.1.1-.2l.1-.2.1-.2.1-.2.1-.2v-.1l10.8 4.4 35.4 7.4-34.3-11.4-11.5-1.6.1-.1v-.2c0-.1.1-.1.1-.1v-.2l.1-.2v-.1l.1-.2v-.4-.4l11.6 1.4 36.1-2.1-36.1-2.1-11.6 1.4v-.1-.4l-.1-.2v-.1l-.1-.3v-.1c0-.1-.1-.2-.1-.2v-.2l-.1-.2 11.5-1.6 34.3-11.3-35.4 7.4-10.8 4.4v-.1l-.1-.2-.1-.2v-.1l-.1-.2c-.1-.1-.1-.2-.1-.2-.1-.1-.1-.2-.1-.2l-.1-.2-.1-.2-.1-.1 10.7-4.5 30.2-19.8-32.3 16.3-9.3 7c0-.1-.1-.1-.1-.1l-.2-.2-.1-.2-.1-.1-.1-.1-.2-.2-.1-.1-.2-.2-.1-.2-.1-.1 9.2-7.1 24.1-27-27.2 24-7.2 9.2-.1-.1-.2-.1-.1-.1-.1-.1-.2-.2-.2-.2-.1-.1-.2-.1-.2-.1-.1-.1 7-9.3 16.3-32.3-19.9 30.2-4.5 10.7-.1-.1c-.1 0-.1-.1-.1-.1l-.2-.1-.2-.1-.2-.1-.2-.1-.2-.1-.2-.1-.2-.1-.2-.1 4.4-10.8 7.4-35.4-11.3 34.3-1.6 11.5h-.1c-.1-.1-.2-.1-.2-.1l-.2-.1h-.2l-.2-.1H257.3l-.2-.1h-.2-.2l1.4-11.5-2.1-36.1-2.1 36.1 1.4 11.5H255l-.2.1h-.4l-.2.1h-.2l-.2.1s-.1 0-.2.1h-.1l-1.6-11.5-11.3-34.3 7.4 35.4 4.4 10.8-.2.1-.2.1-.2.1-.2.1s-.1.1-.2.1l-.2.1-.2.1-.1.1c-.1.1-.2.1-.2.1l-.2.1-4.5-10.7-19.8-30.2 16.3 32.3 7 9.3-.1.1-.2.2c-.1 0-.1.1-.1.1l-.2.1-.2.2-.2.1-.1.1-.1.1-.2.1-.1.1-7.2-9.2-26.9-24.1 24.1 27 9.2 7.1-.1.1-.1.2-.1.1-.1.2-.2.2s-.1.1-.1.2l-.1.1-.1.2-.2.2-.1.1-9.3-7-32.3-16.3 30.2 19.8 10.7 4.5c0 .1-.1.1-.1.1l-.1.2-.1.2-.1.1-.1.2-.1.2-.1.1-.1.2-.1.2v.1l-10.8-4.4-35.4-7.4 34.4 11.3 11.5 1.6-.1.2v.2l-.1.2v.1l-.1.2v.2l-.1.2v.5l-11.6-1.4-36.1 2.1 36.1 2.1 11.6-1.4V257.1l.1.1v.2l.1.2v.2s.1.1.1.2v.2l.1.1-11.5 1.6-34.4 11.4 35.4-7.4 10.8-4.4v.2l.1.2.1.2.1.2c0 .1.1.1.1.1l.1.3.1.2c0 .1.1.1.1.1l.1.2.1.1-10.7 4.5-30.2 19.9 32.3-16.3 9.3-7.1.1.1c.1.1.1.2.1.2l.1.2.1.1.2.2.2.2.1.1s.1.1.2.1c0 0 .1.1.1.2l.1.1-9.2 7.2-24.1 26.9 26.9-24 7.2-9.2c.1 0 .1.1.1.1.1.1.2.1.2.1l.2.2.1.1.2.2.2.1.1.1s.1.1.2.1l.2.1.1.1-7 9.3-16.3 32.3 19.8-30.2 4.5-10.7.1.1c.1.1.2.1.2.1l.1.1.2.1.2.1.1.1.2.1.2.1s.1.1.2.1l.2.1-4.4 10.8-7.4 35.4 11.3-34.3 1.6-11.5.1.1h.2l.2.1h.2l.2.1h.2l.1.1h.5l-1.4 11.6 2.1 36.1L258 280l-1.4-11.6h.5s.1 0 .1-.1h.2l.2-.1h.1l.2-.1h.2l.1-.1 1.6 11.5 11.3 34.3-7.4-35.4-4.4-10.8.2-.1.1-.1.2-.1.2-.1.2-.1.2-.1.2-.1.1-.1.2-.1.1-.1 4.5 10.7 19.9 30.2-16.3-32.3-7-9.3.1-.1.2-.1.2-.1.1-.1.2-.2.2-.2.1-.1.1-.1.2-.2.1-.1 7.2 9.2 26.9 24-23.7-26.6-9.2-7.2.1-.1c.1-.1.2-.1.2-.2z" id="XMLID_6855_"/><path class="st5" d="M256 187.5c-37.9 0-68.5 30.7-68.5 68.5s30.7 68.5 68.5 68.5 68.5-30.7 68.5-68.5-30.6-68.5-68.5-68.5zm58.5 79.5l.4.1c-.6 3.2-1.4 6.3-2.5 9.3-1.4-.6-3.1-.1-3.8 1.2-.9 1.5-.4 3.3 1.1 4.2 0 0 .3.1.4.2-1.4 2.9-3 5.7-4.8 8.3-1.2-1-3-.9-4.1.2-1.1 1.1-1.1 3.1 0 4.3l.3.3c-2.1 2.5-4.4 4.7-6.8 6.8-.9-1.2-2.6-1.6-4-.8-1.4.9-2 2.7-1.1 4.1.1.2.2.2.2.2-2.6 2-5.3 3.6-8.3 4.9-.5-1.4-2.1-2.2-3.6-1.8-1.6.5-2.6 2.1-2.1 3.7l.1.4c-3 1-6.1 1.9-9.3 2.5-.2-1.6-1.4-2.7-3-2.7-1.7 0-3 1.3-3 3l.1.4c-1.6.1-3.1.2-4.7.2-1.7 0-3.3-.1-4.9-.2.2-1.6-.7-3-2.2-3.4-1.7-.5-3.3.5-3.7 2.1l-.1.4c-3.2-.6-6.3-1.4-9.3-2.5.6-1.4.1-3-1.2-3.8-1.5-.9-3.3-.3-4.1 1.1-.1.1-.2.3-.2.3-2.9-1.3-5.7-2.9-8.3-4.7.9-1.2.9-2.9-.2-4.1-1.2-1.1-3.1-1.1-4.4 0 0 0-.2.2-.2.3-2.4-2.1-4.7-4.4-6.8-6.8 1.2-.9 1.6-2.6.8-3.9-.9-1.5-2.7-2-4.1-1.1-.2.1-.2.2-.2.2-2-2.5-3.5-5.3-4.9-8.3 1.4-.5 2.2-2.1 1.8-3.6-.4-1.6-2.1-2.6-3.7-2.1-.2 0-.3.1-.5.1-1-3-1.9-6.1-2.5-9.2 1.6-.2 2.8-1.4 2.8-3 0-1.7-1.4-3-3.1-3 0 0-.2 0-.4.1-.1-1.6-.2-3.1-.2-4.7 0-1.7.1-3.3.2-4.9 1.5.2 3-.7 3.4-2.2.4-1.7-.6-3.3-2.2-3.7l-.6-.4c.6-3.2 1.4-6.3 2.5-9.2 1.4.6 3.1.1 3.8-1.3.9-1.4.3-3.3-1.1-4.1l-.4-.2c1.4-2.9 3-5.6 4.8-8.3 1.2.9 3 .9 4.1-.2 1.1-1.2 1.1-3.1 0-4.3l-.2-.2c2-2.6 4.3-4.8 6.7-6.9.9 1.2 2.6 1.6 4 .8s2-2.7 1.1-4.1l-.2-.3c2.6-1.8 5.4-3.4 8.3-4.8.5 1.4 2.1 2.2 3.6 1.8 1.6-.5 2.6-2.1 2.1-3.7 0 0-.1-.3-.1-.5 3-1 6.1-1.9 9.3-2.4.2 1.5 1.4 2.7 3 2.7 1.7 0 3-1.4 3-3v-.3c1.5-.3 3-.3 4.6-.3 1.7 0 3.3.1 5 .2-.2 1.5.7 2.9 2.2 3.4 1.7.4 3.3-.6 3.7-2.2 0 0 .1-.3.1-.4 3.2.6 6.3 1.4 9.3 2.5-.6 1.4-.1 3.1 1.2 3.9 1.5.8 3.3.3 4.1-1.1l.2-.4c2.9 1.4 5.7 3 8.3 4.9-1 1.1-.9 2.9.2 4 1.2 1.2 3.2 1.2 4.3 0l.3-.3c2.4 2.1 4.7 4.4 6.8 6.8-1.2.9-1.6 2.6-.8 4 .9 1.4 2.7 2 4.1 1.1l.3-.2c1.8 2.6 3.4 5.4 4.8 8.3-1.4.6-2.2 2.1-1.8 3.6.5 1.6 2.1 2.6 3.7 2.2l.4-.2c1 3 1.9 6.1 2.5 9.3-1.6.2-2.7 1.4-2.7 3 0 1.7 1.3 3 3 3h.4c.1 1.5.2 3 .2 4.6 0 1.7-.1 3.3-.2 5-1.6-.2-3 .7-3.4 2.2-.2 1.4.8 3.1 2.4 3.6z" id="XMLID_6851_"/></g></g></svg>
