<svg width="14" height="14" viewBox="0 0 14 14" fill="none" xmlns="http://www.w3.org/2000/svg">
<path d="M5.90022 9.74244C5.75854 9.88914 5.68015 10.0856 5.68192 10.2895C5.68369 10.4935 5.76549 10.6885 5.9097 10.8327C6.0539 10.977 6.24898 11.0588 6.45291 11.0605C6.65684 11.0623 6.85331 10.9839 7 10.8422L10.4891 7.27533C10.5253 7.23921 10.5541 7.19629 10.5737 7.14905C10.5933 7.1018 10.6034 7.05115 10.6034 7C10.6034 6.94885 10.5933 6.8982 10.5737 6.85095C10.5541 6.80371 10.5253 6.76079 10.4891 6.72467L6.98289 3.17644C6.8362 3.03477 6.63973 2.95637 6.4358 2.95814C6.23187 2.95991 6.03679 3.04171 5.89259 3.18592C5.74838 3.33013 5.66658 3.5252 5.66481 3.72913C5.66304 3.93306 5.74143 4.12953 5.88311 4.27622L7.77778 6.22222H0.777778C0.571498 6.22222 0.373667 6.30417 0.227806 6.45003C0.0819442 6.59589 0 6.79372 0 7C0 7.20628 0.0819442 7.40411 0.227806 7.54997C0.373667 7.69583 0.571498 7.77778 0.777778 7.77778H7.77778L5.90022 9.74244ZM12.4444 0H5.44444C5.23816 0 5.04033 0.0819442 4.89447 0.227806C4.74861 0.373667 4.66667 0.571498 4.66667 0.777778C4.66667 0.984057 4.74861 1.18189 4.89447 1.32775C5.04033 1.47361 5.23816 1.55556 5.44444 1.55556H11.6667C11.8729 1.55556 12.0708 1.6375 12.2166 1.78336C12.3625 1.92922 12.4444 2.12705 12.4444 2.33333V11.6667C12.4444 11.8729 12.3625 12.0708 12.2166 12.2166C12.0708 12.3625 11.8729 12.4444 11.6667 12.4444H5.44444C5.23816 12.4444 5.04033 12.5264 4.89447 12.6722C4.74861 12.8181 4.66667 13.0159 4.66667 13.2222C4.66667 13.4285 4.74861 13.6263 4.89447 13.7722C5.04033 13.9181 5.23816 14 5.44444 14H12.4444C12.857 14 13.2527 13.8361 13.5444 13.5444C13.8361 13.2527 14 12.857 14 12.4444V1.55556C14 1.143 13.8361 0.747335 13.5444 0.455612C13.2527 0.163888 12.857 0 12.4444 0Z" fill="#141414"/>
</svg>
