<svg width="17" height="16" viewBox="0 0 17 16" fill="none" xmlns="http://www.w3.org/2000/svg">
<path d="M15.1579 5.05263H10.432L11.3777 2.21726C11.5478 1.70526 11.4619 1.13768 11.1461 0.69979C10.8303 0.261895 10.3183 0 9.77853 0H8.42105C8.17095 0 7.93432 0.111158 7.77347 0.303158L3.81558 5.05263H1.68421C0.755368 5.05263 0 5.808 0 6.73684V14.3158C0 15.2446 0.755368 16 1.68421 16H12.8901C13.2327 15.9989 13.567 15.8938 13.8486 15.6986C14.1302 15.5034 14.346 15.2274 14.4674 14.9069L16.7891 8.71663C16.8243 8.62208 16.8423 8.52196 16.8421 8.42105V6.73684C16.8421 5.808 16.0867 5.05263 15.1579 5.05263ZM1.68421 6.73684H3.36842V14.3158H1.68421V6.73684ZM15.1579 8.26863L12.8901 14.3158H5.05263V6.19958L8.81516 1.68421H9.78021L8.46484 5.62779C8.42214 5.75437 8.41023 5.88931 8.4301 6.02141C8.44997 6.15352 8.50104 6.27898 8.57908 6.3874C8.65713 6.49583 8.7599 6.58408 8.87886 6.64485C8.99783 6.70562 9.12957 6.73716 9.26316 6.73684H15.1579V8.26863Z" fill="#141414"/>
</svg>
