<?xml version="1.0" encoding="utf-8"?>
<!-- Generator: Adobe Illustrator 19.2.0, SVG Export Plug-In . SVG Version: 6.00 Build 0)  -->
<svg version="1.1" id="Layer_1" xmlns="http://www.w3.org/2000/svg" xmlns:xlink="http://www.w3.org/1999/xlink" x="0px" y="0px"
	 viewBox="0 0 15.9 13" style="enable-background:new 0 0 15.9 13;" xml:space="preserve">
<path fill="#fff" d="M5.1,13c-1.8,0-3.5-0.5-4.9-1.5C0,11.4,0,11.2,0,11c0.1-0.2,0.2-0.3,0.4-0.3c0.2,0,0.5,0,0.7,0c1,0,1.9-0.2,2.8-0.7
	C2.9,9.8,2.1,9,1.7,8c0-0.1,0-0.3,0.1-0.4c0,0,0.1-0.1,0.1-0.1C1.1,6.9,0.6,5.9,0.6,4.8v0c0-0.1,0.1-0.3,0.2-0.3
	c0.1-0.1,0.2-0.1,0.3,0C0.8,3.9,0.6,3.3,0.6,2.7c0-0.6,0.2-1.2,0.5-1.7c0.1-0.1,0.2-0.2,0.3-0.2c0.1,0,0.2,0,0.3,0.1
	c1.4,1.7,3.4,2.7,5.6,3c0-0.1,0-0.2,0-0.3C7.3,1.8,8.9,0,10.8,0c0.9,0,1.7,0.6,2.4,1.2c0.6-0.1,1.1-0.3,1.6-0.6
	c0.1-0.1,0.3-0.1,0.4,0c0.1,0.1,0.2,0.3,0.1,0.4c-0.1,0.3-0.2,0.6-0.4,0.8c0.1,0,0.2-0.1,0.3-0.1c0,0,0.1,0,0.1,0c0,0,0,0,0,0
	c0.2,0,0.4,0.2,0.4,0.4c0,0.1,0,0.2-0.1,0.3c-0.4,0.6-1.1,1.2-1.6,1.6c0,0.1,0,0.1,0,0.2C14.1,8.3,10.9,13,5.1,13z M1.4,11.2
	c1,0.4,2.7,0.9,3.8,0.9c5.1-0.1,7.9-4,8.1-8c0-0.1,0-0.2,0-0.4c0-0.1,0.1-0.3,0.2-0.3c0.2-0.1,1.1-0.9,1.1-0.9s-0.6,0.3-0.8,0.3
	c-0.2,0-0.4-0.1-0.4-0.3c-0.1-0.2,0-0.4,0.2-0.5c0.2-0.1,0.7-0.6,0.7-0.6s-0.7,0.3-1,0.4c-0.1,0-0.3,0-0.4-0.1c-0.5-0.5-1.2-1-2-1
	C9.3,0.9,8,2.2,8,3.6c0,0.2,0,0.4,0.1,0.6c0,0.1,0,0.2-0.1,0.3C8,4.6,7.8,4.7,7.7,4.7c-2.4-0.1-4.4-1-6-2.7C1.6,2.2,1.5,2.4,1.5,2.7
	c0,0.9,0.4,1.7,1.1,2.2c0.1,0.1,0.2,0.3,0.2,0.4C2.8,5.5,2.6,5.6,2.4,5.6c-0.3,0-0.6-0.1-0.9-0.2c0.2,1,1,1.8,2.1,2
	c0.2,0,0.3,0.2,0.3,0.4c0,0.2-0.1,0.3-0.3,0.4C3.3,8.2,3,8.3,2.8,8.3C3.2,9,4.1,9.5,5,9.5c0.2,0,0.3,0.1,0.4,0.3
	c0.1,0.2,0,0.3-0.1,0.4C4.3,10.9,2.6,11.1,1.4,11.2z"/>
</svg>
