<svg width="40" height="40" viewBox="0 0 40 40" fill="none" xmlns="http://www.w3.org/2000/svg">
<g filter="url(#filter0_dd)">
<path d="M38.8889 0H1.11111C0.497461 0 0 0.497461 0 1.11111V38.8889C0 39.5025 0.497461 40 1.11111 40H38.8889C39.5025 40 40 39.5025 40 38.8889V1.11111C40 0.497461 39.5025 0 38.8889 0Z" fill="#DC4E41"/>
</g>
<path d="M16.0625 18.8682V21.2124H19.9705C19.813 22.2185 18.7892 24.1622 16.0625 24.1622C13.7098 24.1622 11.7903 22.2282 11.7903 19.845C11.7903 17.4617 13.7098 15.5278 16.0625 15.5278C17.4013 15.5278 18.297 16.0943 18.8089 16.5826L20.6792 14.7952C19.4783 13.6817 17.923 13.0078 16.0625 13.0078C12.253 13.0078 9.17188 16.065 9.17188 19.845C9.17188 23.625 12.253 26.6822 16.0625 26.6822C20.0394 26.6822 22.6775 23.9082 22.6775 20.0012C22.6775 19.5519 22.6283 19.2101 22.5692 18.8682H16.0625Z" fill="white"/>
<path opacity="0.4" d="M16.0625 18.9854H22.5692C22.6381 19.3077 22.6775 19.6496 22.6775 20.0598V19.9915C22.6775 19.5422 22.6283 19.2003 22.5692 18.8584H16.0625V18.9854ZM16.0625 13.125C17.8836 13.125 19.4192 13.7794 20.6005 14.8538L20.6694 14.7854C19.4783 13.6817 17.923 13.0078 16.0625 13.0078C12.253 13.0078 9.17188 16.065 9.17188 19.845V19.9036C9.21125 16.1626 12.2825 13.125 16.0625 13.125ZM16.0625 24.2794C18.7892 24.2794 19.813 22.3454 19.9705 21.3296H19.9409C19.7244 22.365 18.6908 24.1524 16.0625 24.1524C13.7295 24.1524 11.8297 22.2477 11.8002 19.9036C11.8002 19.9231 11.7903 19.9426 11.7903 19.9622C11.7903 22.3454 13.7098 24.2794 16.0625 24.2794Z" fill="white"/>
<path opacity="0.1" d="M16.0625 15.5278C13.7098 15.5278 11.7903 17.4617 11.7903 19.845C11.7903 19.8645 11.8002 19.884 11.8002 19.9036C11.8297 17.5496 13.7295 15.6547 16.0625 15.6547C17.4013 15.6547 18.297 16.2213 18.8089 16.7096L20.6792 14.9222C20.6595 14.9027 20.63 14.8831 20.6103 14.8636L18.8089 16.5924C18.297 16.1041 17.4013 15.5278 16.0625 15.5278ZM16.0625 21.2124V21.3296H19.9409C19.9508 21.2906 19.9606 21.2417 19.9705 21.2124H16.0625Z" fill="#3E2723"/>
<path opacity="0.1" d="M16.0625 26.6822C12.2825 26.6822 9.21125 23.6543 9.17188 19.9036V19.9622C9.17188 23.7422 12.253 26.7994 16.0625 26.7994C20.0394 26.7994 22.6775 24.0255 22.6775 20.1185V20.0599C22.648 23.9376 20.0197 26.6822 16.0625 26.6822Z" fill="#3E2723"/>
<path d="M30.8281 18.8682H28.8594V16.9147H26.8906V18.8682H24.9219V20.8217H26.8906V22.7752H28.8594V20.8217H30.8281" fill="white"/>
<path opacity="0.4" d="M28.8594 18.8682H30.8281V18.9854H28.8594V18.8682ZM26.8906 16.9147H28.8594V17.0319H26.8906V16.9147ZM24.9219 18.8682H26.8906V18.9854H24.9219V18.8682Z" fill="white"/>
<path opacity="0.1" d="M24.9219 20.8217H26.8906V20.9389H24.9219V20.8217ZM28.8594 20.8217H30.8281V20.9389H28.8594V20.8217ZM26.8906 22.7752H28.8594V22.8924H26.8906V22.7752Z" fill="#3E2723"/>
<defs>
<filter id="filter0_dd" x="-1" y="-1" width="42" height="43" filterUnits="userSpaceOnUse" color-interpolation-filters="sRGB">
<feFlood flood-opacity="0" result="BackgroundImageFix"/>
<feColorMatrix in="SourceAlpha" type="matrix" values="0 0 0 0 0 0 0 0 0 0 0 0 0 0 0 0 0 0 127 0"/>
<feOffset dy="1"/>
<feGaussianBlur stdDeviation="0.5"/>
<feColorMatrix type="matrix" values="0 0 0 0 0 0 0 0 0 0 0 0 0 0 0 0 0 0 0.168 0"/>
<feBlend mode="normal" in2="BackgroundImageFix" result="effect1_dropShadow"/>
<feColorMatrix in="SourceAlpha" type="matrix" values="0 0 0 0 0 0 0 0 0 0 0 0 0 0 0 0 0 0 127 0"/>
<feOffset/>
<feGaussianBlur stdDeviation="0.5"/>
<feColorMatrix type="matrix" values="0 0 0 0 0 0 0 0 0 0 0 0 0 0 0 0 0 0 0.084 0"/>
<feBlend mode="normal" in2="effect1_dropShadow" result="effect2_dropShadow"/>
<feBlend mode="normal" in="SourceGraphic" in2="effect2_dropShadow" result="shape"/>
</filter>
</defs>
</svg>
