<svg width="18" height="18" viewBox="0 0 18 18" fill="none" xmlns="http://www.w3.org/2000/svg">
<path d="M7.97034 13.5731C9.45628 13.5731 10.8814 12.9828 11.9321 11.9321C12.9828 10.8814 13.5731 9.45628 13.5731 7.97034C13.5731 6.48439 12.9828 5.05931 11.9321 4.00858C10.8814 2.95786 9.45628 2.36757 7.97034 2.36757C6.48439 2.36757 5.05931 2.95786 4.00858 4.00858C2.95786 5.05931 2.36757 6.48439 2.36757 7.97034C2.36757 9.45628 2.95786 10.8814 4.00858 11.9321C5.05931 12.9828 6.48439 13.5731 7.97034 13.5731ZM13.8719 12.5515L17.2149 15.8945C17.304 15.9807 17.3751 16.0838 17.4239 16.1978C17.4728 16.3117 17.4985 16.4343 17.4995 16.5583C17.5005 16.6823 17.4767 16.8052 17.4297 16.9199C17.3827 17.0347 17.3133 17.1389 17.2255 17.2265C17.1378 17.3141 17.0335 17.3834 16.9187 17.4302C16.8039 17.4771 16.6809 17.5006 16.5569 17.4995C16.4329 17.4983 16.3104 17.4725 16.1965 17.4234C16.0827 17.3744 15.9797 17.3032 15.8936 17.214L12.5506 13.871C11.0495 15.0362 9.16073 15.5856 7.26883 15.4073C5.37692 15.2289 3.62409 14.3363 2.36715 12.9111C1.11021 11.4859 0.44366 9.63524 0.503181 7.73588C0.562702 5.83653 1.34382 4.03124 2.68753 2.68753C4.03124 1.34382 5.83653 0.562702 7.73588 0.503181C9.63524 0.44366 11.4859 1.11021 12.9111 2.36715C14.3363 3.62409 15.2289 5.37692 15.4073 7.26883C15.5856 9.16073 15.0362 11.0495 13.871 12.5506L13.8719 12.5515Z" fill="#D60E0E"/>
</svg>
