<svg width="35" height="29" viewBox="0 0 35 29" fill="none" xmlns="http://www.w3.org/2000/svg">
<path d="M1.5 0.625058C1.13533 0.625058 0.785591 0.769924 0.527728 1.02779C0.269866 1.28565 0.125 1.63539 0.125 2.00006C0.125 2.36473 0.269866 2.71447 0.527728 2.97233C0.785591 3.23019 1.13533 3.37506 1.5 3.37506H4.5525L8.1605 17.8126C8.46712 19.0363 9.563 19.8751 10.8239 19.8751H27.9701C29.2118 19.8751 30.2664 19.0501 30.5923 17.8538L34.1562 4.75006H31.277L27.9688 17.1251H10.8225L7.21587 2.68756C7.06689 2.09525 6.72345 1.57007 6.24056 1.19611C5.75766 0.822163 5.16325 0.621077 4.5525 0.625058H1.5ZM26.25 19.8751C23.9881 19.8751 22.125 21.7382 22.125 24.0001C22.125 26.2619 23.9881 28.1251 26.25 28.1251C28.5119 28.1251 30.375 26.2619 30.375 24.0001C30.375 21.7382 28.5119 19.8751 26.25 19.8751ZM13.875 19.8751C11.6131 19.8751 9.75 21.7382 9.75 24.0001C9.75 26.2619 11.6131 28.1251 13.875 28.1251C16.1369 28.1251 18 26.2619 18 24.0001C18 21.7382 16.1369 19.8751 13.875 19.8751ZM18 0.625058V7.50006H13.875L19.375 13.0001L24.875 7.50006H20.75V0.625058H18ZM13.875 22.6251C14.6505 22.6251 15.25 23.2246 15.25 24.0001C15.25 24.7756 14.6505 25.3751 13.875 25.3751C13.0995 25.3751 12.5 24.7756 12.5 24.0001C12.5 23.2246 13.0995 22.6251 13.875 22.6251ZM26.25 22.6251C27.0255 22.6251 27.625 23.2246 27.625 24.0001C27.625 24.7756 27.0255 25.3751 26.25 25.3751C25.4745 25.3751 24.875 24.7756 24.875 24.0001C24.875 23.2246 25.4745 22.6251 26.25 22.6251Z" fill="white"/>
</svg>
