<svg width="18" height="18" viewBox="0 0 18 18" fill="none" xmlns="http://www.w3.org/2000/svg">
<g clip-path="url(#clip0)">
<path d="M9.00001 1.125C4.02892 1.125 1.39212e-05 4.39805 1.39212e-05 8.4375C1.39212e-05 10.1109 0.699623 11.6437 1.85978 12.8777C1.33595 14.2629 0.246108 15.4371 0.22853 15.4512C-0.0035017 15.6973 -0.066783 16.0559 0.0668108 16.3652C0.200405 16.6746 0.506264 16.875 0.843764 16.875C3.00587 16.875 4.71095 15.9715 5.734 15.2473C6.75001 15.5672 7.84689 15.75 9.00001 15.75C13.9711 15.75 18 12.477 18 8.4375C18 4.39805 13.9711 1.125 9.00001 1.125ZM9.00001 14.0625C8.06134 14.0625 7.13322 13.9184 6.24376 13.6371L5.44572 13.384L4.76017 13.8691C4.25744 14.2242 3.56837 14.6215 2.73869 14.8887C2.99533 14.4633 3.24494 13.9852 3.4383 13.4754L3.81095 12.4875L3.08673 11.7211C2.4504 11.0426 1.68751 9.92109 1.68751 8.4375C1.68751 5.33672 4.96759 2.8125 9.00001 2.8125C13.0324 2.8125 16.3125 5.33672 16.3125 8.4375C16.3125 11.5383 13.0324 14.0625 9.00001 14.0625Z" fill="#868686"/>
</g>
<defs>
<clipPath id="clip0">
<rect width="18" height="18" fill="white"/>
</clipPath>
</defs>
</svg>
