<?xml version="1.0" encoding="utf-8"?>
<!-- Generator: Adobe Illustrator 19.2.0, SVG Export Plug-In . SVG Version: 6.00 Build 0)  -->
<svg version="1.1" id="Layer_1" xmlns="http://www.w3.org/2000/svg" xmlns:xlink="http://www.w3.org/1999/xlink" x="0px" y="0px"
	 viewBox="0 0 18 13" style="enable-background:new 0 0 18 13;" xml:space="preserve">
<g>
	<g>
		<path fill="#fff" d="M3.4,5H3v0.4v4.2V10h0.4h4.2H8V9.6V5.4V5H7.6H3.4z M7,9.1H4V6h3V9.1z M9,6h6V5H9V6z M9,8h6V7H9V8z M17.6,0L0.3,0
			C0.3,0,0,0.2,0,0.4v11.5C0,12.5,0.5,13,1.1,13h13.2c0.1,0,0.2,0,0.3-0.1l3.2-3.4C17.9,9.4,18,9.3,18,9.2V0.4C18,0.2,17.6,0,17.6,0
			z M14.7,11.5l0-1.8l1.7,0L14.7,11.5z M17,9l-2.7,0H14v0.4l0,2.6H1.3C1.1,12,1,11.8,1,11.6V1L17,1V9z M9,10H13V9H9V10z M15,3H3v1
			h12V3z"/>
	</g>
</g>
</svg>
