<svg xmlns="http://www.w3.org/2000/svg" width="160" height="40" viewBox="0 0 160 40"><g fill="#141529"><path d="M50.996 11.931c.32.322.48.736.48 1.248v12.615c0 2.307-.713 4.012-2.141 5.117-1.426 1.105-3.236 1.658-5.428 1.658-.568 0-1.348-.096-2.34-.283-.992-.189-1.697-.377-2.111-.566-.928-.396-1.391-.945-1.391-1.645 0-.133.029-.283.086-.455.113-.414.307-.73.582-.949.273-.217.57-.324.893-.324.189 0 .369.027.539.084.074.018.543.193 1.402.525.861.33 1.639.494 2.34.494 1.398 0 2.441-.277 3.133-.836.689-.557 1.033-1.346 1.033-2.367v-1.359c-.414.586-1.043 1.113-1.885 1.586s-1.742.709-2.707.709c-1.322 0-2.527-.336-3.615-1.006-1.086-.67-1.941-1.602-2.564-2.793-.625-1.191-.936-2.541-.936-4.055 0-1.51.307-2.867.922-4.066.613-1.201 1.455-2.137 2.521-2.807 1.068-.672 2.254-1.008 3.559-1.008.965 0 1.861.199 2.693.596.83.396 1.502.879 2.012 1.447v-.312c0-.492.16-.902.482-1.234.322-.33.727-.496 1.219-.496s.9.161 1.222.482zm-3.984 10.787c.803-.898 1.205-2.025 1.205-3.389 0-1.359-.402-2.494-1.205-3.4-.803-.908-1.838-1.361-3.104-1.361-1.268 0-2.297.453-3.092 1.361-.793.906-1.189 2.041-1.189 3.4 0 1.363.396 2.49 1.189 3.389.795.898 1.824 1.348 3.092 1.348 1.266-.001 2.301-.45 3.104-1.348zm20.539-10.787c.322.322.482.736.482 1.248v11.992c0 .492-.16.902-.482 1.232-.32.332-.729.496-1.219.496s-.893-.16-1.205-.48c-.311-.322-.477-.729-.496-1.221-.473.549-1.109 1.018-1.912 1.402a5.758 5.758 0 0 1-2.539.582c-1.303 0-2.484-.336-3.543-1.006s-1.895-1.602-2.508-2.793c-.615-1.191-.924-2.541-.924-4.055 0-1.51.303-2.867.908-4.066.605-1.201 1.432-2.137 2.48-2.807a6.308 6.308 0 0 1 3.473-1.008 6.59 6.59 0 0 1 2.553.496c.793.332 1.463.752 2.012 1.262v-.027c0-.492.16-.902.482-1.234.32-.33.729-.496 1.219-.496s.898.162 1.219.483zm-3.94 10.787c.773-.898 1.162-2.025 1.162-3.389 0-1.359-.389-2.494-1.162-3.4-.775-.908-1.777-1.361-3.006-1.361-1.209 0-2.201.453-2.977 1.361-.775.906-1.162 2.041-1.162 3.4 0 1.363.383 2.49 1.148 3.389s1.762 1.348 2.99 1.348 2.232-.45 3.007-1.348zm20.354-10.49c.322.332.482.742.482 1.234v12.049c0 2.457-.662 4.248-1.984 5.371-1.322 1.125-3.09 1.688-5.301 1.688-.645 0-1.301-.051-1.971-.156-.672-.104-1.215-.24-1.631-.41-.926-.396-1.389-.945-1.389-1.645 0-.133.027-.283.086-.453.113-.416.307-.732.58-.949.273-.219.57-.328.895-.328.188 0 .367.029.537.086.133.057.363.15.695.283.33.133.68.24 1.049.326.367.086.75.127 1.148.127 1.342 0 2.328-.287 2.961-.863.635-.576.951-1.564.951-2.963v-.283c-.984 1.229-2.514 1.842-4.594 1.842-.982 0-1.852-.23-2.607-.693s-1.342-1.105-1.758-1.928c-.416-.824-.625-1.762-.625-2.822v-8.277c0-.492.162-.902.482-1.234.322-.33.729-.496 1.219-.496.492 0 .898.166 1.221.496.32.332.482.742.482 1.234v7.258c0 1.191.258 2.045.777 2.564.521.521 1.281.781 2.283.781.982 0 1.744-.289 2.283-.865.537-.576.807-1.402.807-2.48v-7.258c0-.492.16-.902.482-1.234.322-.33.727-.496 1.219-.496s.901.163 1.221.494zm3.033 11.468c0-.492.246-.908.738-1.248a1.5 1.5 0 0 1 .82-.256c.398 0 .775.182 1.135.539.566.588 1.158 1.021 1.771 1.305.615.283 1.357.426 2.227.426 1.475-.057 2.211-.615 2.211-1.674 0-.547-.25-.963-.752-1.246-.5-.285-1.279-.568-2.338-.85-1.096-.303-1.99-.605-2.68-.908s-1.285-.762-1.785-1.375c-.502-.615-.752-1.441-.752-2.48 0-.908.26-1.697.779-2.367.521-.672 1.201-1.191 2.041-1.561a6.632 6.632 0 0 1 2.68-.553c.963 0 1.928.18 2.893.539.963.359 1.719.889 2.268 1.588.244.303.367.643.367 1.021 0 .434-.178.793-.537 1.076a1.428 1.428 0 0 1-.908.312c-.416 0-.756-.133-1.02-.396a3.59 3.59 0 0 0-1.318-.992c-.539-.246-1.148-.369-1.83-.369-1.436 0-2.154.52-2.154 1.559 0 .416.133.752.398 1.008.264.254.6.453 1.006.594a31.4 31.4 0 0 0 1.715.525c1.021.283 1.871.576 2.553.879.68.303 1.256.764 1.729 1.389.471.623.709 1.445.709 2.467 0 .926-.275 1.734-.822 2.424a5.214 5.214 0 0 1-2.113 1.574 6.844 6.844 0 0 1-2.65.537c-1.246 0-2.41-.209-3.486-.623a5.791 5.791 0 0 1-2.637-2.014c-.172-.227-.258-.51-.258-.85z"/></g><g><path fill="#141529" d="M105.229 14.058v9.498c0 .717.133 1.203.398 1.459.264.254.613.383 1.049.383.113 0 .254-.023.426-.07a1.49 1.49 0 0 1 .395-.07c.172 0 .318.07.441.211a.735.735 0 0 1 .184.496c0 .266-.152.488-.453.666-.303.18-.662.27-1.078.27-.51 0-.963-.047-1.361-.143-.396-.092-.779-.377-1.146-.85-.369-.473-.553-1.229-.553-2.268v-9.582h-2.07a.816.816 0 0 1-.582-.229.742.742 0 0 1-.24-.566c0-.227.08-.416.24-.566a.827.827 0 0 1 .582-.227h2.07V9.323c0-.246.08-.449.24-.611.16-.16.363-.24.609-.24s.449.08.609.24c.16.162.24.365.24.611v3.146h2.836c.207 0 .391.086.553.254.16.17.24.359.24.568 0 .227-.074.41-.227.553a.797.797 0 0 1-.566.213h-2.836z"/></g><g><path fill="#141529" d="M120.113 12.3c.303.15.453.377.453.68 0 .266-.076.477-.227.639a.72.72 0 0 1-.539.24c-.094 0-.279-.047-.553-.141a2.348 2.348 0 0 0-.779-.143c-.699 0-1.395.27-2.084.809-.689.537-1.258 1.232-1.701 2.082-.443.852-.666 1.711-.666 2.582v7.002c0 .246-.08.449-.24.609a.832.832 0 0 1-.609.24.822.822 0 0 1-.851-.849V13.349c0-.246.08-.449.242-.611a.83.83 0 0 1 .609-.24.84.84 0 0 1 .609.24c.16.162.24.365.24.611v2.494c.436-1.076 1.092-1.969 1.971-2.678s1.914-1.072 3.104-1.092c.379 0 .719.074 1.021.227z"/></g><g><path fill="#141529" d="M135.092 12.399c.16.16.242.363.242.609V25.51c0 1.492-.295 2.768-.879 3.826-.586 1.059-1.398 1.863-2.439 2.41-1.039.549-2.211.822-3.514.822a9.187 9.187 0 0 1-2.227-.256c-.689-.168-1.262-.395-1.715-.68-.396-.246-.596-.52-.596-.822 0-.037.02-.133.057-.283a.78.78 0 0 1 .283-.426.725.725 0 0 1 .766-.057c1.209.662 2.363.992 3.459.992 1.568 0 2.811-.492 3.729-1.473.916-.982 1.375-2.326 1.375-4.027v-.992c-.473.795-1.152 1.434-2.041 1.914a5.975 5.975 0 0 1-2.893.723c-1.645 0-2.893-.49-3.742-1.473s-1.275-2.316-1.275-3.998v-8.703a.825.825 0 0 1 .849-.851c.246 0 .449.08.609.242.162.16.242.363.242.609v8.447c0 1.361.297 2.391.893 3.09.596.701 1.527 1.049 2.793 1.049.775 0 1.516-.193 2.225-.58s1.277-.898 1.701-1.531c.426-.633.639-1.309.639-2.027v-8.447a.825.825 0 0 1 .849-.851c.246 0 .45.08.61.242z"/></g><g><path fill="#141529" d="M138.271 23.979c0-.246.123-.434.369-.566a.616.616 0 0 1 .453-.17c.227 0 .436.094.625.283 1.115 1.475 2.598 2.211 4.451 2.211.906 0 1.695-.213 2.367-.637.67-.426 1.006-1.045 1.006-1.857 0-.795-.312-1.389-.936-1.787-.625-.396-1.494-.736-2.609-1.02-1.568-.398-2.797-.912-3.684-1.545-.891-.635-1.334-1.564-1.334-2.793 0-.775.217-1.469.652-2.084.436-.613 1.025-1.092 1.771-1.432.748-.34 1.592-.51 2.537-.51.812 0 1.631.154 2.453.467s1.525.809 2.111 1.49c.172.131.256.32.256.566 0 .227-.096.424-.283.596a.77.77 0 0 1-.51.168.705.705 0 0 1-.512-.227 4.493 4.493 0 0 0-1.615-1.162 5.11 5.11 0 0 0-2.014-.396c-.889 0-1.648.207-2.281.623s-.949 1.041-.949 1.871c.037.758.381 1.332 1.033 1.73.652.396 1.611.756 2.879 1.076.982.246 1.795.521 2.438.822a4.11 4.11 0 0 1 1.574 1.275c.406.549.609 1.277.609 2.184 0 1.229-.492 2.207-1.475 2.936-.982.727-2.201 1.09-3.658 1.09-2.305 0-4.139-.859-5.5-2.58-.147-.243-.224-.452-.224-.622z"/></g><g><path fill="#141529" d="M156.371 14.058v9.498c0 .717.133 1.203.396 1.459.266.254.615.383 1.051.383.113 0 .254-.023.424-.07.17-.049.303-.07.396-.07.17 0 .316.07.439.211a.737.737 0 0 1 .186.496c0 .266-.152.488-.455.666-.301.18-.66.27-1.076.27-.51 0-.965-.047-1.361-.143-.396-.092-.779-.377-1.148-.85-.367-.473-.553-1.229-.553-2.268v-9.582h-2.068a.81.81 0 0 1-.582-.229.742.742 0 0 1-.24-.566c0-.227.08-.416.24-.566s.354-.227.582-.227h2.068V9.323a.825.825 0 0 1 .851-.851c.244 0 .447.08.609.24.16.162.24.365.24.611v3.146h2.836c.207 0 .391.086.553.254.16.17.24.359.24.568 0 .227-.076.41-.227.553a.797.797 0 0 1-.566.213h-2.835z"/></g><g><path fill="#E52332" d="M4.838 5.505A5.312 5.312 0 0 0 0 10.595v8.68a11.546 11.546 0 0 1 4.838-1.539V5.505z"/><path fill="#F18A38" d="M5.852 17.687c1.324 0 2.609.229 3.822.652V5.481H5.291c-.152 0-.303.012-.453.023v12.23a13.09 13.09 0 0 1 1.014-.047zM4.846 34.495V21.528z"/><path fill="#F1E850" d="M12.818 20.021l1.695-1.695v-2.402h-.602a1.645 1.645 0 1 1 0-3.292h.602V5.481h-4.84v12.857c1.124.395 2.184.958 3.145 1.683z"/><path fill="#1A8344" d="M16.914 15.923h-2.4v2.402zm2.35 5.344V18.23l-4.117 4.119c2.666 3.553 3.025 8.291 1.092 12.17h3.113V21.772a1.599 1.599 0 0 1-.088-.505zm-4.75-15.786h4.838v7.148h-4.838z"/><path fill="#2D668E" d="M23.727 5.481h-4.375v7.148h1.477a1.56 1.56 0 0 1 .414.035c.004 0 .008.002.014.004a1.644 1.644 0 0 1 1.3 1.607v6.99a1.642 1.642 0 0 1-3.205.505v12.723l4.838.023V5.507a4.474 4.474 0 0 0-.463-.026zm-2.866 6.881c.006 0 .012-.004.018-.004.01 0 .021.004.031.004h-.049zm1.448.588l.004.004-.004-.004zm.556 1.832c.025-.129.039-.262.041-.396 0-.002 0-.002-.002-.002a2.162 2.162 0 0 1-.039.398z"/><path fill="#6B2E86" d="M24.189 5.507v28.988c2.701-.238 4.836-2.52 4.836-5.277V10.782c0-2.758-2.134-5.039-4.836-5.275z"/><path fill="#E52332" d="M0 23.38v6.023a5.302 5.302 0 0 0 2.4 4.24 5.28 5.28 0 0 0 2.438.852V21.048A8.267 8.267 0 0 0 0 23.38zm4.838-1.852h.008v12.967h-.008z"/><path fill="#F18A38" d="M5.852 20.979c-.342 0-.678.027-1.014.068v.48h.008v12.967l4.828.023V21.911a8.255 8.255 0 0 0-3.822-.932z"/><path fill="#F18A38" d="M9.673 22.503h.011v12.014h-.011z"/><path fill="#F1E850" d="M11.914 23.606c-.066-.049-.135-.098-.195-.16-.062-.061-.111-.129-.162-.197a8.394 8.394 0 0 0-1.883-1.338v.59c.004 0 .008.002.01.004v12.014h2.675a8.345 8.345 0 0 0-.445-10.913z"/><path fill="#000729" d="M20.861 12.362h.049c-.01 0-.021-.004-.031-.004-.006 0-.012.004-.018.004z"/><path fill="#FFF" d="M21.531 12.753a1.612 1.612 0 0 0-.275-.084c-.006-.002-.01-.004-.014-.004a1.56 1.56 0 0 0-.414-.035h-6.917a1.646 1.646 0 0 0 0 3.292h3.002l-2.4 2.402-1.695 1.695a11.595 11.595 0 0 0-6.967-2.334c-.342 0-.678.021-1.014.049-1.722.15-3.364.681-4.837 1.54v4.105a8.267 8.267 0 0 1 4.838-2.332 8.342 8.342 0 0 1 1.014-.068 8.24 8.24 0 0 1 3.822.932c.68.354 1.312.801 1.883 1.338.051.068.1.137.162.197.061.062.129.111.195.16a8.344 8.344 0 0 1 .445 10.912h3.879c1.934-3.879 1.574-8.617-1.092-12.17l4.117-4.119v3.037c0 .178.035.346.088.506.215.66.828 1.141 1.559 1.141.91 0 1.646-.738 1.646-1.646v-6.99a1.643 1.643 0 0 0-1.025-1.524z"/></g></svg>