<?xml version="1.0" encoding="utf-8"?>
<!-- Generator: Adobe Illustrator 19.2.0, SVG Export Plug-In . SVG Version: 6.00 Build 0)  -->
<svg version="1.1" id="Layer_1" xmlns="http://www.w3.org/2000/svg" xmlns:xlink="http://www.w3.org/1999/xlink" x="0px" y="0px"
	 viewBox="0 0 17 13" style="enable-background:new 0 0 17 13;" xml:space="preserve">
<g>
	<g>
		<path fill="#fff" d="M13.5,0.3c0,0-1.9-0.3-4.9-0.3c-3,0-5.1,0.3-5.1,0.3C1.6,0.3,0,1.8,0,3.7v5.3c0,1.9,1.6,3.5,3.5,3.5c0,0,2.1,0.5,5.1,0.5
			c3,0,4.9-0.4,4.9-0.4c1.9,0,3.5-1.6,3.5-3.5V3.7C17,1.8,15.4,0.3,13.5,0.3z M16,9.1c0,0.7-0.2,1.3-0.6,1.7
			c-0.5,0.5-1.1,0.7-1.7,0.7c0,0-1.9,0.5-5,0.5c-3.2,0-5.1-0.5-5.1-0.5c-0.7,0-1.3-0.3-1.7-0.7c-0.5-0.5-0.8-1.1-0.8-1.7l0-5.3
			C1,3.1,1.1,2.5,1.6,2c0.5-0.5,1.3-0.7,2-0.7c0,0,1.8-0.3,5-0.3c3.2,0,5,0.3,5,0.3c0.7,0,1.3,0.3,1.7,0.7C15.8,2.5,16,3.1,16,3.7
			V9.1z M7.7,3.3C7.6,3.2,7.4,3.2,7.3,3.2S7,3.5,7,3.6v5.9C7,9.7,7.1,9.9,7.3,10c0.1,0,0.1,0,0.2,0c0.1,0,0.2,0,0.3-0.1l4-3.1
			c0.1-0.1,0.2-0.2,0.2-0.3c0-0.1-0.1-0.3-0.2-0.3L7.7,3.3z M8,8.7V4.5l2.8,1.9L8,8.7z"/>
	</g>
</g>
</svg>
