<svg width="16" height="16" viewBox="0 0 16 16" fill="none" xmlns="http://www.w3.org/2000/svg">
<path d="M15.9989 6.32889H9.97225L12.4078 3.82222C9.98114 1.42222 6.05225 1.33333 3.62559 3.73333C1.19892 6.14222 1.19892 10.0267 3.62559 12.4356C6.05225 14.8444 9.98114 14.8444 12.4078 12.4356C13.6167 11.2444 14.2211 9.84889 14.2211 8.08889H15.9989C15.9989 9.84889 15.2167 12.1333 13.6523 13.68C10.5323 16.7733 5.46559 16.7733 2.34559 13.68C-0.765526 10.5956 -0.792192 5.58222 2.32781 2.49778C5.44781 -0.586667 10.4523 -0.586667 13.5723 2.49778L15.9989 0V6.32889ZM8.44336 4.44444V8.22222L11.5545 10.0711L10.9145 11.1467L7.11003 8.88889V4.44444H8.44336Z" fill="black"/>
</svg>
