<svg width="19" height="14" viewBox="0 0 19 14" fill="none" xmlns="http://www.w3.org/2000/svg">
<path d="M18.543 6.44601C16.5136 2.15798 13.4458 0 9.33333 0C5.21872 0 2.1531 2.15798 0.123621 6.44816C0.0422179 6.62105 0 6.80987 0 7.00107C0 7.19227 0.0422179 7.3811 0.123621 7.55399C2.1531 11.842 5.22086 14 9.33333 14C13.4479 14 16.5136 11.842 18.543 7.55184C18.7079 7.20399 18.7079 6.80031 18.543 6.44601ZM9.33333 12.454C5.88022 12.454 3.35194 10.6975 1.56866 7C3.35194 3.30245 5.88022 1.54601 9.33333 1.54601C12.7864 1.54601 15.3147 3.30245 17.098 7C15.3169 10.6975 12.7886 12.454 9.33333 12.454ZM9.2477 3.22086C7.16684 3.22086 5.47989 4.91288 5.47989 7C5.47989 9.08712 7.16684 10.7791 9.2477 10.7791C11.3286 10.7791 13.0155 9.08712 13.0155 7C13.0155 4.91288 11.3286 3.22086 9.2477 3.22086ZM9.2477 9.40491C7.92254 9.40491 6.85 8.32914 6.85 7C6.85 5.67086 7.92254 4.59509 9.2477 4.59509C10.5729 4.59509 11.6454 5.67086 11.6454 7C11.6454 8.32914 10.5729 9.40491 9.2477 9.40491Z" fill="black"/>
</svg>
