<svg width="28" height="28" viewBox="0 0 28 28" fill="none" xmlns="http://www.w3.org/2000/svg">
<path d="M26.88 0H1.12C0.5005 0 0 0.5005 0 1.12V26.88C0 27.4995 0.5005 28 1.12 28H26.88C27.4995 28 28 27.4995 28 26.88V1.12C28 0.5005 27.4995 0 26.88 0ZM19.845 20.496C18.424 21.805 16.485 22.575 14.1715 22.575C10.822 22.575 7.924 20.6535 6.5135 17.8535C5.91251 16.6579 5.59967 15.3382 5.6 14C5.6 12.614 5.9325 11.305 6.5135 10.1465C7.924 7.343 10.822 5.4215 14.1715 5.4215C16.4815 5.4215 18.4205 6.272 19.908 7.6545L17.451 10.115C16.562 9.2645 15.4315 8.834 14.175 8.834C11.942 8.834 10.052 10.3425 9.3765 12.369C9.205 12.8835 9.107 13.433 9.107 14C9.107 14.567 9.205 15.1165 9.3765 15.631C10.052 17.6575 11.942 19.166 14.1715 19.166C15.3265 19.166 16.3065 18.8615 17.073 18.347C17.983 17.738 18.585 16.8315 18.7845 15.757H14.1715V12.439H22.246C22.3475 13.0025 22.4 13.587 22.4 14.1925C22.4 16.807 21.4655 19.0015 19.845 20.496Z" fill="#E0392C"/>
</svg>
