<svg width="14" height="14" viewBox="0 0 14 14" fill="none" xmlns="http://www.w3.org/2000/svg">
<path d="M8.01252 11.9735C6.68423 11.9732 5.39422 11.5285 4.34789 10.7103L1.05817 14L1.62125e-05 12.9418L3.28973 9.65213C2.47104 8.60569 2.0261 7.31538 2.02578 5.98674C2.02578 2.6858 4.71158 0 8.01252 0C11.3135 0 13.9993 2.6858 13.9993 5.98674C13.9993 9.28768 11.3135 11.9735 8.01252 11.9735ZM8.01252 1.49669C5.53626 1.49669 3.52247 3.51048 3.52247 5.98674C3.52247 8.46301 5.53626 10.4768 8.01252 10.4768C10.4888 10.4768 12.5026 8.46301 12.5026 5.98674C12.5026 3.51048 10.4888 1.49669 8.01252 1.49669Z" fill="#395185"/>
</svg>
