<svg width="20" height="20" viewBox="0 0 20 20" fill="none" xmlns="http://www.w3.org/2000/svg">
<path d="M17.5 8.43333H11.85L14.1333 6.08333C11.8583 3.83333 8.175 3.75 5.9 6C5.35955 6.533 4.9304 7.16808 4.63749 7.86834C4.34458 8.56861 4.19374 9.32011 4.19374 10.0792C4.19374 10.8382 4.34458 11.5897 4.63749 12.29C4.9304 12.9903 5.35955 13.6253 5.9 14.1583C6.99543 15.2433 8.47488 15.8519 10.0167 15.8519C11.5585 15.8519 13.0379 15.2433 14.1333 14.1583C15.2667 13.0417 15.8333 11.7333 15.8333 10.0833H17.5C17.5 11.7333 16.7667 13.875 15.3 15.325C12.375 18.225 7.625 18.225 4.7 15.325C1.78333 12.4333 1.75833 7.73333 4.68333 4.84167C6.08576 3.45229 7.98004 2.67283 9.95417 2.67283C11.9283 2.67283 13.8226 3.45229 15.225 4.84167L17.5 2.5V8.43333ZM10.4167 6.66667V10.2083L13.3333 11.9417L12.7333 12.95L9.16667 10.8333V6.66667H10.4167Z" fill="#868686"/>
</svg>
