<svg width="242" height="53" viewBox="0 0 242 53" fill="none" xmlns="http://www.w3.org/2000/svg">
<g clip-path="url(#clip0)">
<path d="M37.8839 8.34869H0V46.6656H28.1337L38.3634 51.7772L38.3616 46.6656H46.036V16.0123L37.8839 8.34869Z" fill="#FFCE54"/>
<path d="M38.3634 36.6011H7.67268C6.96636 36.6011 6.39418 36.028 6.39418 35.3237C6.39418 34.6156 6.96648 34.0443 7.67268 34.0443H38.3634C39.0696 34.0443 39.6408 34.6156 39.6408 35.3237C39.6409 36.028 39.0696 36.6011 38.3634 36.6011Z" fill="#656D78"/>
<path d="M38.3634 28.9294H7.67268C6.96636 28.9294 6.39418 28.3562 6.39418 27.65C6.39418 26.9438 6.96648 26.3715 7.67268 26.3715H38.3634C39.0696 26.3715 39.6408 26.9438 39.6408 27.65C39.6408 28.3562 39.0696 28.9294 38.3634 28.9294Z" fill="#656D78"/>
<path d="M24.2965 21.2569H7.67268C6.96636 21.2569 6.39418 20.6836 6.39418 19.9774C6.39418 19.2712 6.96648 18.699 7.67268 18.699H24.2965C25.0027 18.699 25.5759 19.2713 25.5759 19.9774C25.5759 20.6836 25.0027 21.2569 24.2965 21.2569Z" fill="#656D78"/>
<path d="M37.8538 8.34869V15.9914H46.036L37.8538 8.34869Z" fill="#F6BB42"/>
</g>
<path d="M72.7539 29.8652H64.8789V38H60.7773V18.0938H73.7383V21.416H64.8789V26.5566H72.7539V29.8652ZM83.8145 26.9121C83.2767 26.8392 82.8027 26.8027 82.3926 26.8027C80.8978 26.8027 79.918 27.3086 79.4531 28.3203V38H75.502V23.207H79.2344L79.3438 24.9707C80.1367 23.6126 81.235 22.9336 82.6387 22.9336C83.0762 22.9336 83.4863 22.9928 83.8691 23.1113L83.8145 26.9121ZM92.2637 38.2734C90.0944 38.2734 88.3262 37.6081 86.959 36.2773C85.6009 34.9466 84.9219 33.1738 84.9219 30.959V30.5762C84.9219 29.0905 85.209 27.7643 85.7832 26.5977C86.3574 25.4219 87.1686 24.5195 88.2168 23.8906C89.2741 23.2526 90.4772 22.9336 91.8262 22.9336C93.8496 22.9336 95.4401 23.5716 96.5977 24.8477C97.7643 26.1237 98.3477 27.9329 98.3477 30.2754V31.8887H88.9277C89.0553 32.8548 89.4382 33.6296 90.0762 34.2129C90.7233 34.7962 91.5391 35.0879 92.5234 35.0879C94.0456 35.0879 95.235 34.5365 96.0918 33.4336L98.0332 35.6074C97.4408 36.446 96.6387 37.1022 95.627 37.5762C94.6152 38.041 93.4941 38.2734 92.2637 38.2734ZM91.8125 26.1328C91.0286 26.1328 90.3906 26.3971 89.8984 26.9258C89.4154 27.4544 89.1055 28.2109 88.9688 29.1953H94.4648V28.8809C94.4466 28.0059 94.2096 27.3314 93.7539 26.8574C93.2982 26.3743 92.651 26.1328 91.8125 26.1328ZM107.412 38.2734C105.243 38.2734 103.475 37.6081 102.107 36.2773C100.749 34.9466 100.07 33.1738 100.07 30.959V30.5762C100.07 29.0905 100.357 27.7643 100.932 26.5977C101.506 25.4219 102.317 24.5195 103.365 23.8906C104.423 23.2526 105.626 22.9336 106.975 22.9336C108.998 22.9336 110.589 23.5716 111.746 24.8477C112.913 26.1237 113.496 27.9329 113.496 30.2754V31.8887H104.076C104.204 32.8548 104.587 33.6296 105.225 34.2129C105.872 34.7962 106.688 35.0879 107.672 35.0879C109.194 35.0879 110.383 34.5365 111.24 33.4336L113.182 35.6074C112.589 36.446 111.787 37.1022 110.775 37.5762C109.764 38.041 108.643 38.2734 107.412 38.2734ZM106.961 26.1328C106.177 26.1328 105.539 26.3971 105.047 26.9258C104.564 27.4544 104.254 28.2109 104.117 29.1953H109.613V28.8809C109.595 28.0059 109.358 27.3314 108.902 26.8574C108.447 26.3743 107.799 26.1328 106.961 26.1328ZM136.055 30.7402C136.055 33.11 135.549 34.9603 134.537 36.291C133.525 37.6126 132.113 38.2734 130.299 38.2734C128.695 38.2734 127.414 37.6582 126.457 36.4277L126.279 38H122.725V17H126.676V24.5332C127.587 23.4668 128.786 22.9336 130.271 22.9336C132.076 22.9336 133.489 23.599 134.51 24.9297C135.54 26.2513 136.055 28.1152 136.055 30.5215V30.7402ZM132.104 30.4531C132.104 28.9583 131.867 27.8691 131.393 27.1855C130.919 26.4928 130.212 26.1465 129.273 26.1465C128.016 26.1465 127.15 26.6615 126.676 27.6914V33.5293C127.159 34.5684 128.034 35.0879 129.301 35.0879C130.577 35.0879 131.415 34.459 131.816 33.2012C132.008 32.5996 132.104 31.6836 132.104 30.4531ZM142.672 38H138.707V17H142.672V38ZM145.324 30.4668C145.324 28.9993 145.607 27.6914 146.172 26.543C146.737 25.3945 147.548 24.5059 148.605 23.877C149.672 23.248 150.907 22.9336 152.311 22.9336C154.307 22.9336 155.934 23.5443 157.191 24.7656C158.458 25.987 159.165 27.6458 159.311 29.7422L159.338 30.7539C159.338 33.0234 158.704 34.8464 157.438 36.2227C156.171 37.5898 154.471 38.2734 152.338 38.2734C150.205 38.2734 148.501 37.5898 147.225 36.2227C145.958 34.8555 145.324 32.9961 145.324 30.6445V30.4668ZM149.275 30.7539C149.275 32.1576 149.54 33.2331 150.068 33.9805C150.597 34.7188 151.354 35.0879 152.338 35.0879C153.295 35.0879 154.042 34.7233 154.58 33.9941C155.118 33.2559 155.387 32.0801 155.387 30.4668C155.387 29.0905 155.118 28.0241 154.58 27.2676C154.042 26.5111 153.286 26.1328 152.311 26.1328C151.344 26.1328 150.597 26.5111 150.068 27.2676C149.54 28.015 149.275 29.1771 149.275 30.7539ZM161.197 30.4941C161.197 28.2246 161.735 26.3971 162.811 25.0117C163.895 23.6263 165.354 22.9336 167.186 22.9336C168.808 22.9336 170.07 23.4896 170.973 24.6016L171.137 23.207H174.719V37.5078C174.719 38.8021 174.423 39.9277 173.83 40.8848C173.247 41.8418 172.422 42.571 171.355 43.0723C170.289 43.5736 169.04 43.8242 167.609 43.8242C166.525 43.8242 165.467 43.6055 164.438 43.168C163.408 42.7396 162.628 42.1836 162.1 41.5L163.85 39.0938C164.834 40.1966 166.028 40.748 167.432 40.748C168.48 40.748 169.296 40.4655 169.879 39.9004C170.462 39.3444 170.754 38.5514 170.754 37.5215V36.7285C169.842 37.7585 168.644 38.2734 167.158 38.2734C165.381 38.2734 163.941 37.5807 162.838 36.1953C161.744 34.8008 161.197 32.9551 161.197 30.6582V30.4941ZM165.148 30.7812C165.148 32.1211 165.417 33.1738 165.955 33.9395C166.493 34.696 167.231 35.0742 168.17 35.0742C169.373 35.0742 170.234 34.623 170.754 33.7207V27.5C170.225 26.5977 169.373 26.1465 168.197 26.1465C167.249 26.1465 166.502 26.5339 165.955 27.3086C165.417 28.0833 165.148 29.2409 165.148 30.7812Z" fill="white"/>
<defs>
<clipPath id="clip0">
<rect width="46" height="46" fill="white" transform="translate(0 7)"/>
</clipPath>
</defs>
</svg>
