<?xml version="1.0" encoding="utf-8"?>
<!-- Generator: Adobe Illustrator 19.2.0, SVG Export Plug-In . SVG Version: 6.00 Build 0)  -->
<svg version="1.1" id="Layer_1" xmlns="http://www.w3.org/2000/svg" xmlns:xlink="http://www.w3.org/1999/xlink" x="0px" y="0px"
	 viewBox="0 0 18.4 14" style="enable-background:new 0 0 18.4 14;" xml:space="preserve">
<path fill="#fff" d="M12.3,0c-0.6,0-1.2,0.4-1.8,0.5C9.5,0.2,8.5,0,7.4,0C3.3,0,0,2.8,0,6.1c0,1.8,0.9,3.5,2.5,4.6V14l3.4-1.9
	c0.5,0.1,1,0.1,1.4,0.1c2,0,3.8-0.7,5.2-1.8c0.3,0,0.6,0,0.9-0.1l2.9,1.6V9.3c1.3-1,2.1-2.3,2.1-3.8C18.4,2.6,15.6,0,12.3,0z
	 M7.4,11.3c-0.5,0-1,0-1.4-0.1l-0.2,0l-2.2,1.2v-2.1l-0.2-0.1C1.8,9.1,1,7.7,1,6.1C1,3.3,3.8,1,7.4,1C7.9,1,8.5,1,9,1.1
	C7.3,2,6.2,3.6,6.2,5.4c0,2.4,2,4.5,4.8,5C10,11,8.7,11.3,7.4,11.3z M15.5,8.6l-0.2,0.1v1.6l-1.7-0.9l0,0l-0.2,0
	c-0.4,0.1-0.8,0.1-1.2,0.1c0,0-0.1,0-0.1,0c-2.8-0.1-5-1.9-5-4.1c0-1.7,1.3-3.3,3.2-4C10.9,1.3,11.4,1,12,1c0.1,0,0.2,0,0.3,0
	c2.8,0,5.1,2.2,5.1,4.4C17.4,6.7,16.7,7.8,15.5,8.6z"/>
</svg>
