<?xml version="1.0" encoding="utf-8"?>
<!-- Generator: Adobe Illustrator 19.2.0, SVG Export Plug-In . SVG Version: 6.00 Build 0)  -->
<svg version="1.1" id="Layer_1" xmlns="http://www.w3.org/2000/svg" xmlns:xlink="http://www.w3.org/1999/xlink" x="0px" y="0px"
	 viewBox="0 0 14.9 14.9" style="enable-background:new 0 0 14.9 14.9;" xml:space="preserve">
<path fill="#fff" d="M14.3,1.9L13,0.5C12.6,0.2,12.1,0,11.7,0c-0.5,0-1,0.2-1.3,0.5l-8,8c-0.4,0.4-1.7,1.8-1.7,2.3L0,14.9l4-0.8
	c0,0,1.9-1.2,2.2-1.6l8-8C15,3.8,15,2.6,14.3,1.9z M4,13.2L1,14l0.6-3.4c0,0,0-0.1,0-0.1c0,0,0,0,0,0l2.6,2.7
	C4.2,13.1,4.1,13.2,4,13.2z M5.7,12c-0.1,0.1-0.4,0.2-0.8,0.5L2.3,9.8c0.3-0.4,0.4-0.6,0.6-0.8L9.1,3l2.8,2.8L5.7,12z M13.8,3.9
	l-1.4,1.4L9.5,2.5L10.9,1c0.2-0.2,0.4-0.3,0.7-0.3c0.3,0,0.5,0.1,0.7,0.3l1.4,1.4c0.2,0.2,0.3,0.4,0.3,0.7C14.1,3.5,14,3.7,13.8,3.9
	z"/>
</svg>
