<svg width="100" height="100" viewBox="0 0 100 100" fill="none" xmlns="http://www.w3.org/2000/svg">
<path d="M100 50C100 77.6142 77.6142 100 50 100C22.3858 100 0 77.6142 0 50C0 22.3858 22.3858 0 50 0C77.6142 0 100 22.3858 100 50ZM10.6741 50C10.6741 71.7191 28.2809 89.3259 50 89.3259C71.7191 89.3259 89.3259 71.7191 89.3259 50C89.3259 28.2809 71.7191 10.6741 50 10.6741C28.2809 10.6741 10.6741 28.2809 10.6741 50Z" fill="#8E2ADD"/>
<path d="M100 50C100 57.0198 98.5219 63.9608 95.6618 70.3715C92.8017 76.7822 88.6238 82.5188 83.4 87.208C78.1762 91.8972 72.0235 95.4339 65.3424 97.5879C58.6613 99.7419 51.6015 100.465 44.6225 99.71C37.6434 98.955 30.9016 96.7389 24.8357 93.206C18.7698 89.673 13.5158 84.9024 9.41558 79.2045C5.31541 73.5067 2.46096 67.0093 1.03802 60.1353C-0.384928 53.2613 -0.344485 46.1647 1.15672 39.3073L11.573 41.5876C10.392 46.9826 10.3601 52.5658 11.4796 57.9739C12.5991 63.3819 14.8448 68.4937 18.0706 72.9764C21.2964 77.4591 25.4299 81.2124 30.2022 83.9919C34.9745 86.7714 40.2786 88.5149 45.7693 89.1089C51.26 89.7028 56.8142 89.134 62.0705 87.4393C67.3268 85.7447 72.1674 82.9623 76.2772 79.2731C80.3869 75.5839 83.6739 71.0707 85.924 66.0271C88.1741 60.9836 89.337 55.5227 89.337 50H100Z" fill="url(#paint0_linear)"/>
<defs>
<linearGradient id="paint0_linear" x1="50" y1="0" x2="50" y2="100" gradientUnits="userSpaceOnUse">
<stop stop-color="#FBDB7B"/>
<stop offset="1" stop-color="#FE902E"/>
</linearGradient>
</defs>
</svg>
