<svg width="100" height="100" viewBox="0 0 100 100" fill="none" xmlns="http://www.w3.org/2000/svg">
<path d="M100 50C100 77.6142 77.6142 100 50 100C22.3858 100 0 77.6142 0 50C0 22.3858 22.3858 0 50 0C77.6142 0 100 22.3858 100 50ZM10.6741 50C10.6741 71.7191 28.2809 89.3259 50 89.3259C71.7191 89.3259 89.3259 71.7191 89.3259 50C89.3259 28.2809 71.7191 10.6741 50 10.6741C28.2809 10.6741 10.6741 28.2809 10.6741 50Z" fill="#8E2ADD"/>
<path d="M100 50C100 59.6983 97.1795 69.1873 91.8821 77.311C86.5847 85.4347 79.039 91.8425 70.1644 95.7537C61.2897 99.6649 51.4691 100.911 41.8989 99.3394C32.3288 97.768 23.4221 93.4474 16.2641 86.9038C9.10599 80.3601 4.00545 71.876 1.58381 62.4849C-0.837837 53.0938 -0.476055 43.2011 2.62508 34.012C5.72622 24.8228 11.4328 16.7339 19.0498 10.7306C26.6667 4.72733 35.8651 1.06879 45.5245 0.200702L46.479 10.8209C38.8795 11.5038 31.6427 14.3822 25.6502 19.1052C19.6577 23.8282 15.168 30.1921 12.7282 37.4216C10.2884 44.651 10.0038 52.434 11.909 59.8224C13.8142 67.2107 17.827 73.8855 23.4586 79.0337C29.0901 84.1818 36.0973 87.581 43.6266 88.8173C51.1558 90.0535 58.8821 89.0734 65.8641 85.9963C72.8462 82.9192 78.7826 77.8779 82.9503 71.4867C87.118 65.0954 89.337 57.6301 89.337 50H100Z" fill="url(#paint0_linear)"/>
<defs>
<linearGradient id="paint0_linear" x1="50" y1="0" x2="50" y2="100" gradientUnits="userSpaceOnUse">
<stop stop-color="#FBDB7B"/>
<stop offset="1" stop-color="#FE902E"/>
</linearGradient>
</defs>
</svg>
