<svg width="100" height="100" viewBox="0 0 100 100" fill="none" xmlns="http://www.w3.org/2000/svg">
<path d="M100 50C100 77.6142 77.6142 100 50 100C22.3858 100 0 77.6142 0 50C0 22.3858 22.3858 0 50 0C77.6142 0 100 22.3858 100 50ZM10.6741 50C10.6741 71.7191 28.2809 89.3259 50 89.3259C71.7191 89.3259 89.3259 71.7191 89.3259 50C89.3259 28.2809 71.7191 10.6741 50 10.6741C28.2809 10.6741 10.6741 28.2809 10.6741 50Z" fill="#8E2ADD"/>
<path d="M100 50C100 63.0939 94.8636 75.6654 85.6944 85.013C76.5252 94.3606 64.0551 99.7384 50.9636 99.9907C37.8721 100.243 25.204 95.3498 15.6814 86.3625C6.1588 77.3752 0.541724 65.011 0.0371389 51.9268C-0.467446 38.8426 4.18073 26.0825 12.9829 16.3885C21.785 6.69451 34.0387 0.840192 47.1107 0.0835495C60.1828 -0.673093 73.03 3.72832 82.8919 12.342C92.7537 20.9557 98.8431 33.0942 99.8515 46.1493L89.2202 46.9705C88.4268 36.6996 83.6361 27.1497 75.8774 20.3729C68.1187 13.5962 58.0112 10.1334 47.7269 10.7287C37.4426 11.324 27.8021 15.9298 20.8771 23.5565C13.9521 31.1831 10.2952 41.222 10.6922 51.5159C11.0892 61.8098 15.5084 71.5372 23.0002 78.6079C30.4919 85.6786 40.4585 89.5282 50.7581 89.3297C61.0577 89.1312 70.8685 84.9003 78.0822 77.5462C85.296 70.192 89.337 60.3015 89.337 50H100Z" fill="url(#paint0_linear)"/>
<defs>
<linearGradient id="paint0_linear" x1="50" y1="0" x2="50" y2="100" gradientUnits="userSpaceOnUse">
<stop stop-color="#FBDB7B"/>
<stop offset="1" stop-color="#FE902E"/>
</linearGradient>
</defs>
</svg>
