<svg width="100" height="100" viewBox="0 0 100 100" fill="none" xmlns="http://www.w3.org/2000/svg">
<path d="M100 50C100 77.6142 77.6142 100 50 100C22.3858 100 0 77.6142 0 50C0 22.3858 22.3858 0 50 0C77.6142 0 100 22.3858 100 50ZM10.6741 50C10.6741 71.7191 28.2809 89.3259 50 89.3259C71.7191 89.3259 89.3259 71.7191 89.3259 50C89.3259 28.2809 71.7191 10.6741 50 10.6741C28.2809 10.6741 10.6741 28.2809 10.6741 50Z" fill="#8E2ADD"/>
<path d="M100 50C100 62.6384 95.2139 74.8079 86.6045 84.0604C77.9952 93.3128 66.2014 98.9617 53.5957 99.8705C40.99 100.779 28.5078 96.8809 18.6602 88.9592C8.81257 81.0375 2.3302 69.6804 0.517157 57.1727C-1.29588 44.6651 1.69494 31.9348 8.88794 21.543C16.0809 11.1512 26.9424 3.86891 39.2873 1.16109C51.6322 -1.54672 64.5446 0.520876 75.4268 6.94794C86.3089 13.375 94.3535 23.6847 97.9421 35.8029L87.718 38.8306C84.8947 29.2967 78.5657 21.1856 70.0043 16.1292C61.4428 11.0728 51.2841 9.44611 41.5719 11.5765C31.8597 13.7068 23.3145 19.4361 17.6555 27.6118C11.9965 35.7874 9.64345 45.8028 11.0698 55.6431C12.4962 65.4834 17.5962 74.4184 25.3437 80.6508C33.0912 86.8831 42.9115 89.9502 52.8289 89.2352C62.7463 88.5201 72.0249 84.0759 78.7983 76.7967C85.5716 69.5174 89.337 59.9431 89.337 50H100Z" fill="url(#paint0_linear)"/>
<defs>
<linearGradient id="paint0_linear" x1="50" y1="0" x2="50" y2="100" gradientUnits="userSpaceOnUse">
<stop stop-color="#FBDB7B"/>
<stop offset="1" stop-color="#FE902E"/>
</linearGradient>
</defs>
</svg>
