<svg width="100" height="100" viewBox="0 0 100 100" fill="none" xmlns="http://www.w3.org/2000/svg">
<path d="M100 50C100 77.6142 77.6142 100 50 100C22.3858 100 0 77.6142 0 50C0 22.3858 22.3858 0 50 0C77.6142 0 100 22.3858 100 50ZM10.6741 50C10.6741 71.7191 28.2809 89.3259 50 89.3259C71.7191 89.3259 89.3259 71.7191 89.3259 50C89.3259 28.2809 71.7191 10.6741 50 10.6741C28.2809 10.6741 10.6741 28.2809 10.6741 50Z" fill="#8E2ADD"/>
<path d="M100 50C100 62.4765 95.3355 74.5022 86.9225 83.7154C78.5095 92.9287 66.9559 98.6637 54.5308 99.7943C42.1056 100.925 29.7067 97.3692 19.769 89.8257C9.83132 82.2822 3.07293 71.2958 0.821114 59.0243C-1.4307 46.7527 0.986759 34.0826 7.59874 23.5022C14.2107 12.9218 24.5395 5.19572 36.5565 1.84117C48.5736 -1.51337 61.4106 -0.253963 72.5466 5.37208C83.6826 10.9981 92.3128 20.5843 96.7425 32.2479L86.7742 36.0337C83.2892 26.8574 76.4994 19.3156 67.7383 14.8894C58.9772 10.4632 48.8778 9.47234 39.4235 12.1115C29.9692 14.7507 21.8431 20.8291 16.6412 29.1531C11.4393 37.4771 9.53738 47.4452 11.309 57.0997C13.0806 66.7543 18.3977 75.3977 26.2161 81.3325C34.0344 87.2673 43.7892 90.0647 53.5645 89.1752C63.3399 88.2857 72.4296 83.7737 79.0484 76.5253C85.6673 69.2769 89.337 59.8158 89.337 50H100Z" fill="url(#paint0_linear)"/>
<defs>
<linearGradient id="paint0_linear" x1="50" y1="0" x2="50" y2="100" gradientUnits="userSpaceOnUse">
<stop stop-color="#FBDB7B"/>
<stop offset="1" stop-color="#FE902E"/>
</linearGradient>
</defs>
</svg>
