<svg width="17" height="18" viewBox="0 0 17 18" fill="none" xmlns="http://www.w3.org/2000/svg">
<path d="M8.1111 8.11111C7.16811 8.11111 6.26374 7.73651 5.59694 7.06971C4.93014 6.40292 4.55554 5.49855 4.55554 4.55556C4.55554 3.61256 4.93014 2.70819 5.59694 2.0414C6.26374 1.3746 7.16811 1 8.1111 1C9.05409 1 9.95846 1.3746 10.6253 2.0414C11.2921 2.70819 11.6667 3.61256 11.6667 4.55556C11.6667 5.49855 11.2921 6.40292 10.6253 7.06971C9.95846 7.73651 9.05409 8.11111 8.1111 8.11111Z" stroke="white" stroke-width="2" stroke-linecap="round"/>
<path d="M1 17V16.1111C1 14.6966 1.5619 13.3401 2.5621 12.3399C3.56229 11.3397 4.91885 10.7778 6.33333 10.7778H9.88889C11.3034 10.7778 12.6599 11.3397 13.6601 12.3399C14.6603 13.3401 15.2222 14.6966 15.2222 16.1111V17" stroke="white" stroke-width="2" stroke-linecap="round"/>
</svg>
