<svg width="16" height="16" viewBox="0 0 16 16" fill="none" xmlns="http://www.w3.org/2000/svg">
<g clip-path="url(#clip0)">
<path d="M5.68002 11.456C6.96585 12.4549 8.58405 12.9261 10.2051 12.7737C11.8262 12.6213 13.3282 11.8569 14.4054 10.6359C15.4826 9.41494 16.054 7.82932 16.0031 6.2019C15.9522 4.57449 15.283 3.02763 14.1317 1.87631C12.9804 0.724992 11.4335 0.0557723 9.80611 0.00491828C8.1787 -0.0459358 6.59308 0.525399 5.37212 1.60259C4.15116 2.67978 3.38667 4.18183 3.23431 5.8029C3.08194 7.42397 3.55316 9.04217 4.55202 10.328L0.272022 14.592L1.40802 15.728L5.67202 11.456H5.68002ZM9.60002 11.2C8.96968 11.2 8.3455 11.0758 7.76314 10.8346C7.18078 10.5934 6.65163 10.2398 6.20591 9.79411C5.76019 9.34839 5.40662 8.81924 5.1654 8.23688C4.92418 7.65451 4.80002 7.03034 4.80002 6.4C4.80002 5.76965 4.92418 5.14548 5.1654 4.56312C5.40662 3.98075 5.76019 3.45161 6.20591 3.00588C6.65163 2.56016 7.18078 2.2066 7.76314 1.96537C8.3455 1.72415 8.96968 1.6 9.60002 1.6C10.8731 1.6 12.094 2.10571 12.9941 3.00588C13.8943 3.90606 14.4 5.12696 14.4 6.4C14.4 7.67304 13.8943 8.89393 12.9941 9.79411C12.094 10.6943 10.8731 11.2 9.60002 11.2Z" fill="#ffffff"/>
</g>
<defs>
<clipPath id="clip0">
<rect width="16" height="16" fill="white" transform="matrix(-1 0 0 1 16 0)"/>
</clipPath>
</defs>
</svg>
